<svg width="23" height="22" viewBox="0 0 23 22" fill="none" xmlns="http://www.w3.org/2000/svg">
<g id="Group 1">
<path id="Vector" d="M22.2849 11.2532C22.2849 10.5054 22.2243 9.75366 22.0949 9.01807H11.7197V13.2538H17.6611C17.4146 14.6199 16.6224 15.8284 15.4624 16.5963V19.3447H19.007C21.0885 17.4289 22.2849 14.5997 22.2849 11.2532Z" fill="#4285F4"/>
<path id="Vector_2" d="M11.7197 22.0002C14.6863 22.0002 17.1882 21.0262 19.011 19.3448L15.4664 16.5964C14.4802 17.2674 13.207 17.6473 11.7237 17.6473C8.85407 17.6473 6.42094 15.7113 5.54792 13.1084H1.89014V15.9417C3.75743 19.656 7.56071 22.0002 11.7197 22.0002Z" fill="#34A853"/>
<path id="Vector_3" d="M5.54404 13.1082C5.08328 11.7421 5.08328 10.2629 5.54404 8.89674V6.06348H1.8903C0.330186 9.17158 0.330186 12.8334 1.8903 15.9415L5.54404 13.1082Z" fill="#FBBC04"/>
<path id="Vector_4" d="M11.7197 4.35371C13.2879 4.32945 14.8035 4.91955 15.9393 6.00274L19.0797 2.8623C17.0912 0.995012 14.4519 -0.0315927 11.7197 0.000741252C7.56071 0.000741252 3.75742 2.34496 1.89014 6.06337L5.54388 8.89663C6.41285 6.2897 8.85003 4.35371 11.7197 4.35371Z" fill="#EA4335"/>
</g>
</svg>
