<svg width="80" height="80" viewBox="0 0 80 80" fill="none" xmlns="http://www.w3.org/2000/svg">
<g id="img_recover">
<g id="Group 5">
<path id="Shape" fill-rule="evenodd" clip-rule="evenodd" d="M40.1273 28.8342C42.9186 28.8342 45.6034 29.2935 48.1147 30.1417V12.744C48.1147 9.06268 45.1365 6.06877 41.4747 6.06877H38.78C35.1181 6.06877 32.14 9.06276 32.14 12.744V24.7602C32.14 28.7532 26.1037 28.7532 26.1037 24.7602V12.744C26.1037 5.74356 31.8165 0 38.7804 0H41.475C48.4318 0 54.1517 5.74991 54.1517 12.744V33.1389C61.0752 37.8327 65.2336 45.6477 65.2336 54.077C65.2336 68.0141 53.9878 79.3196 40.1244 79.3196C26.2609 79.3196 15.0151 68.0141 15.0151 54.077C15.0151 40.14 26.2609 28.8345 40.1244 28.8345L40.1273 28.8342ZM40.1272 37.7691C49.0883 37.7691 56.3488 45.0713 56.3488 54.0768C56.3488 63.0822 49.0884 70.3844 40.1272 70.3844C31.1695 70.3844 23.9057 63.0856 23.9057 54.0768C23.9057 45.068 31.1693 37.7691 40.1272 37.7691ZM21.0575 54.0768C21.0575 43.4888 29.5952 34.9058 40.1272 34.9058C50.6627 34.9058 59.2003 43.4854 59.2003 54.0768C59.2003 64.6647 50.6626 73.2477 40.1272 73.2477C29.5919 73.2477 21.0575 64.6682 21.0575 54.0768Z" fill="black"/>
<g id="f_logo_RGB-Blue_1024">
<g id="Group 3">
<mask id="mask0_248_16945" style="mask-type:luminance" maskUnits="userSpaceOnUse" x="48" y="55" width="25" height="25">
<path id="Clip 2" fill-rule="evenodd" clip-rule="evenodd" d="M48.666 55.9688H72.57V79.8542H48.666V55.9688Z" fill="white"/>
</mask>
<g mask="url(#mask0_248_16945)">
<path id="Fill 1" fill-rule="evenodd" clip-rule="evenodd" d="M72.57 67.9839C72.57 61.3476 67.2186 55.9678 60.6173 55.9678C54.016 55.9678 48.6646 61.3476 48.6646 67.9839C48.6646 73.9816 53.0355 78.9527 58.7496 79.8541V71.4574H55.7148V67.9839H58.7496V65.3366C58.7496 62.3251 60.5341 60.6616 63.2644 60.6616C64.5721 60.6616 65.94 60.8963 65.94 60.8963V63.8534H64.4327C62.9479 63.8534 62.4849 64.7796 62.4849 65.7299V67.9839H65.7999L65.2699 71.4574H62.4849V79.8541C68.199 78.9527 72.57 73.9816 72.57 67.9839Z" fill="#1877F2"/>
</g>
</g>
<path id="Fill 4" fill-rule="evenodd" clip-rule="evenodd" d="M65.27 71.4574L65.7999 67.984H62.4849V65.7299C62.4849 64.7797 62.948 63.8534 64.4328 63.8534H65.94V60.8963C65.94 60.8963 64.5722 60.6616 63.2644 60.6616C60.5342 60.6616 58.7497 62.3251 58.7497 65.3367V67.984H55.7148V71.4574H58.7497V79.8542C59.3582 79.9502 59.982 80.0001 60.6173 80.0001C61.2527 80.0001 61.8764 79.9502 62.4849 79.8542V71.4574H65.27Z" fill="white"/>
</g>
<g id="Google_ G _Logo">
<path id="Path" d="M79.9999 14.1813C79.9999 13.3902 79.9302 12.6392 79.8106 11.9082H68.5552V16.4243H74.9997C74.7108 17.9063 73.8642 19.158 72.6091 20.0091V23.0131H76.4539C78.705 20.9203 79.9999 17.8362 79.9999 14.1813Z" fill="#4285F4"/>
<path id="Path_2" d="M68.555 25.9272C71.7822 25.9272 74.4816 24.8457 76.4537 23.0133L72.609 20.0092C71.5332 20.7302 70.1686 21.1708 68.555 21.1708C65.4373 21.1708 62.7978 19.0579 61.8515 16.2041H57.8872V19.2983C59.8494 23.2235 63.8835 25.9272 68.555 25.9272Z" fill="#34A853"/>
<path id="Path_3" d="M61.8518 16.2043C61.6028 15.4833 61.4733 14.7123 61.4733 13.9112C61.4733 13.1101 61.6127 12.3391 61.8518 11.6181V8.52393H57.8875C57.0707 10.1461 56.6025 11.9686 56.6025 13.9112C56.6025 15.8538 57.0707 17.6762 57.8875 19.2984L61.8518 16.2043Z" fill="#FBBC05"/>
<path id="Path_4" d="M68.555 6.65142C70.318 6.65142 71.8918 7.26224 73.1369 8.45384L76.5434 5.02924C74.4816 3.08662 71.7822 1.89502 68.555 1.89502C63.8835 1.89502 59.8494 4.59866 57.8872 8.52394L61.8515 11.6181C62.7978 8.76426 65.4373 6.65142 68.555 6.65142Z" fill="#EA4335"/>
</g>
<g id="VK.com-logo">
<path id="path2" d="M8.28721 26.7856H15.6182C22.3117 26.7856 23.9054 28.3878 23.9054 35.1169V42.4868C23.9054 49.2158 22.3117 50.818 15.6182 50.818H8.28721C1.59369 50.818 0 49.2158 0 42.4868V35.1169C0 28.3878 1.59369 26.7856 8.28721 26.7856Z" fill="#2787F5"/>
<path id="Vector" d="M12.8002 45C6.65035 45 3.14386 40.8783 3 34.0088H6.09291C6.19181 39.0464 8.45754 41.1777 10.2557 41.6181V34.0088H13.1598V38.3507C14.9311 38.1657 16.8012 36.1841 17.4306 34H20.3257C20.0896 35.1306 19.6181 36.2014 18.9405 37.1455C18.2629 38.0895 17.3938 38.8866 16.3876 39.4868C17.5105 40.0343 18.5022 40.8087 19.2972 41.759C20.0923 42.7093 20.6726 43.8139 21 45H17.8082C17.1249 42.9127 15.4166 41.2922 13.1598 41.0721V45H12.8092H12.8002Z" fill="white"/>
</g>
</g>
</g>
</svg>
