<svg width="25" height="24" viewBox="0 0 25 24" fill="none" xmlns="http://www.w3.org/2000/svg">
<g id="Big Icons">
<g id="Icon">
<path d="M12.5005 15C14.1573 15 15.5005 13.6569 15.5005 12C15.5005 10.3431 14.1573 9 12.5005 9C10.8436 9 9.50049 10.3431 9.50049 12C9.50049 13.6569 10.8436 15 12.5005 15Z" stroke="#686475" stroke-width="2" stroke-linecap="round" stroke-linejoin="round"/>
<path d="M9.78957 19.3711L10.374 20.6856C10.5478 21.0768 10.8313 21.4093 11.1902 21.6426C11.5492 21.8759 11.9681 22.0001 12.3962 22C12.8244 22.0001 13.2433 21.8759 13.6022 21.6426C13.9612 21.4093 14.2447 21.0768 14.4185 20.6856L15.0029 19.3711C15.211 18.9047 15.5609 18.5159 16.0029 18.26C16.4477 18.0034 16.9622 17.8941 17.4729 17.9478L18.9029 18.1C19.3286 18.145 19.7582 18.0656 20.1396 17.8713C20.521 17.6771 20.8379 17.3763 21.0518 17.0056C21.266 16.635 21.368 16.2103 21.3455 15.7829C21.323 15.3555 21.177 14.9438 20.9251 14.5978L20.0785 13.4344C19.777 13.0171 19.6159 12.5148 19.6185 12C19.6184 11.4866 19.781 10.9864 20.0829 10.5711L20.9296 9.40778C21.1814 9.06175 21.3275 8.65007 21.35 8.22267C21.3725 7.79528 21.2704 7.37054 21.0562 7C20.8423 6.62923 20.5255 6.32849 20.144 6.13423C19.7626 5.93997 19.333 5.86053 18.9074 5.90556L17.4774 6.05778C16.9667 6.11141 16.4521 6.00212 16.0074 5.74556C15.5645 5.48825 15.2144 5.09736 15.0074 4.62889L14.4185 3.31444C14.2447 2.92317 13.9612 2.59072 13.6022 2.3574C13.2433 2.12408 12.8244 1.99993 12.3962 2C11.9681 1.99993 11.5492 2.12408 11.1902 2.3574C10.8313 2.59072 10.5478 2.92317 10.374 3.31444L9.78957 4.62889C9.5825 5.09736 9.23245 5.48825 8.78957 5.74556C8.34479 6.00212 7.83024 6.11141 7.31957 6.05778L5.88513 5.90556C5.45946 5.86053 5.02987 5.93997 4.64844 6.13423C4.26702 6.32849 3.95014 6.62923 3.73624 7C3.52206 7.37054 3.42002 7.79528 3.44251 8.22267C3.46499 8.65007 3.61103 9.06175 3.86291 9.40778L4.70957 10.5711C5.01151 10.9864 5.17411 11.4866 5.17402 12C5.17411 12.5134 5.01151 13.0137 4.70957 13.4289L3.86291 14.5922C3.61103 14.9382 3.46499 15.3499 3.44251 15.7773C3.42002 16.2047 3.52206 16.6295 3.73624 17C3.95036 17.3706 4.26727 17.6712 4.64864 17.8654C5.03001 18.0596 5.45949 18.1392 5.88513 18.0944L7.31513 17.9422C7.8258 17.8886 8.34034 17.9979 8.78513 18.2544C9.22966 18.511 9.58134 18.902 9.78957 19.3711Z" stroke="#686475" stroke-width="2" stroke-linecap="round" stroke-linejoin="round"/>
</g>
</g>
</svg>
