<svg width="40" height="24" viewBox="0 0 40 24" fill="none" xmlns="http://www.w3.org/2000/svg">
<g id="Group 5369">
<path id="Mask" fill-rule="evenodd" clip-rule="evenodd" d="M12.4369 0.0713433C13.8016 -0.00607569 15.1647 0.000117831 16.5294 0.000117831C16.5388 0.000117831 23.4447 0.000117831 23.4447 0.000117831C24.8361 0.000117831 26.1992 -0.00607569 27.5631 0.0713433C28.8031 0.14102 30.011 0.289665 31.2133 0.621792C33.7443 1.32011 35.9545 2.77868 37.5522 4.84655C39.1404 6.90125 40 9.41659 40 11.9993C40 14.5851 39.1404 17.0989 37.5522 19.1536C35.9545 21.2207 33.7443 22.68 31.2133 23.3783C30.011 23.7105 28.8031 23.8583 27.5631 23.9288C26.1992 24.0062 24.8361 23.9992 23.4714 23.9992C23.462 23.9992 16.5545 24 16.5545 24C15.1647 23.9992 13.8016 24.0062 12.4369 23.9288C11.1976 23.8583 9.9898 23.7105 8.78745 23.3783C6.25647 22.68 4.04627 21.2207 2.44863 19.1536C0.860392 17.0989 0 14.5851 0 12.0001C0 9.41659 0.860392 6.90125 2.44863 4.84655C4.04627 2.77868 6.25647 1.32011 8.78745 0.621792C9.9898 0.289665 11.1976 0.14102 12.4369 0.0713433Z" fill="#D0D5DD"/>
<mask id="mask0_1318_7244" style="mask-type:luminance" maskUnits="userSpaceOnUse" x="0" y="0" width="40" height="24">
<path id="Mask_2" fill-rule="evenodd" clip-rule="evenodd" d="M12.4369 0.0713433C13.8016 -0.00607569 15.1647 0.000117831 16.5294 0.000117831C16.5388 0.000117831 23.4447 0.000117831 23.4447 0.000117831C24.8361 0.000117831 26.1992 -0.00607569 27.5631 0.0713433C28.8031 0.14102 30.011 0.289665 31.2133 0.621792C33.7443 1.32011 35.9545 2.77868 37.5522 4.84655C39.1404 6.90125 40 9.41659 40 11.9993C40 14.5851 39.1404 17.0989 37.5522 19.1536C35.9545 21.2207 33.7443 22.68 31.2133 23.3783C30.011 23.7105 28.8031 23.8583 27.5631 23.9288C26.1992 24.0062 24.8361 23.9992 23.4714 23.9992C23.462 23.9992 16.5545 24 16.5545 24C15.1647 23.9992 13.8016 24.0062 12.4369 23.9288C11.1976 23.8583 9.9898 23.7105 8.78745 23.3783C6.25647 22.68 4.04627 21.2207 2.44863 19.1536C0.860392 17.0989 0 14.5851 0 12.0001C0 9.41659 0.860392 6.90125 2.44863 4.84655C4.04627 2.77868 6.25647 1.32011 8.78745 0.621792C9.9898 0.289665 11.1976 0.14102 12.4369 0.0713433Z" fill="white"/>
</mask>
<g mask="url(#mask0_1318_7244)">
<g id="knob" filter="url(#filter0_dd_1318_7244)">
<path fill-rule="evenodd" clip-rule="evenodd" d="M12 22C17.5228 22 22 17.5228 22 12C22 6.47715 17.5228 2 12 2C6.47715 2 2 6.47715 2 12C2 17.5228 6.47715 22 12 22Z" fill="white"/>
<path d="M12 22.25C17.6609 22.25 22.25 17.6609 22.25 12C22.25 6.33908 17.6609 1.75 12 1.75C6.33908 1.75 1.75 6.33908 1.75 12C1.75 17.6609 6.33908 22.25 12 22.25Z" stroke="black" stroke-opacity="0.04" stroke-width="0.5"/>
</g>
</g>
</g>
<defs>
<filter id="filter0_dd_1318_7244" x="-6.5" y="-3.5" width="37" height="37" filterUnits="userSpaceOnUse" color-interpolation-filters="sRGB">
<feFlood flood-opacity="0" result="BackgroundImageFix"/>
<feColorMatrix in="SourceAlpha" type="matrix" values="0 0 0 0 0 0 0 0 0 0 0 0 0 0 0 0 0 0 127 0" result="hardAlpha"/>
<feOffset dy="3"/>
<feGaussianBlur stdDeviation="0.5"/>
<feColorMatrix type="matrix" values="0 0 0 0 0 0 0 0 0 0 0 0 0 0 0 0 0 0 0.06 0"/>
<feBlend mode="normal" in2="BackgroundImageFix" result="effect1_dropShadow_1318_7244"/>
<feColorMatrix in="SourceAlpha" type="matrix" values="0 0 0 0 0 0 0 0 0 0 0 0 0 0 0 0 0 0 127 0" result="hardAlpha"/>
<feOffset dy="3"/>
<feGaussianBlur stdDeviation="4"/>
<feColorMatrix type="matrix" values="0 0 0 0 0 0 0 0 0 0 0 0 0 0 0 0 0 0 0.15 0"/>
<feBlend mode="normal" in2="effect1_dropShadow_1318_7244" result="effect2_dropShadow_1318_7244"/>
<feBlend mode="normal" in="SourceGraphic" in2="effect2_dropShadow_1318_7244" result="shape"/>
</filter>
</defs>
</svg>
