<svg width="20" height="20" viewBox="0 0 20 20" fill="none" xmlns="http://www.w3.org/2000/svg">
<path d="M1.99183 15.0821L8.8459 3.24329C9.22471 2.58899 9.41411 2.26184 9.66122 2.15196C9.87677 2.05612 10.1228 2.05612 10.3384 2.15196C10.5855 2.26184 10.7749 2.58899 11.1537 3.24329L18.0078 15.0821C18.3879 15.7388 18.578 16.0671 18.5499 16.3366C18.5254 16.5716 18.4023 16.7852 18.2112 16.9242C17.992 17.0835 17.6126 17.0835 16.8539 17.0835H3.14573C2.38696 17.0835 2.00757 17.0835 1.78844 16.9242C1.59731 16.7852 1.47417 16.5716 1.44967 16.3366C1.42157 16.0671 1.61166 15.7388 1.99183 15.0821Z" fill="#FBDE7A"/>
<path d="M9.9998 7.5V10.8333M9.9998 14.1667H10.0081" stroke="#333333" stroke-width="2" stroke-linecap="round" stroke-linejoin="round"/>
</svg>
